<svg width="21" height="21" viewBox="0 0 21 21" fill="none" xmlns="http://www.w3.org/2000/svg">
<path d="M19.6211 3.62012L17.021 1.02246C16.8376 0.838241 16.6196 0.692075 16.3795 0.59236C16.1394 0.492644 15.882 0.441344 15.6221 0.441406C15.0923 0.441406 14.5942 0.648926 14.2207 1.02246L11.4229 3.82031C11.2386 4.00373 11.0925 4.22173 10.9928 4.4618C10.893 4.70187 10.8417 4.95928 10.8418 5.21924C10.8418 5.74902 11.0493 6.24707 11.4229 6.62061L13.4688 8.6665C12.9899 9.72207 12.324 10.6823 11.5034 11.501C10.6849 12.3236 9.72468 12.9918 8.66895 13.4736L6.62305 11.4277C6.43964 11.2435 6.22163 11.0973 5.98156 10.9976C5.74149 10.8979 5.48408 10.8466 5.22412 10.8467C4.69434 10.8467 4.19629 11.0542 3.82276 11.4277L1.02246 14.2231C0.838016 14.4069 0.691725 14.6253 0.592004 14.8658C0.492284 15.1063 0.441104 15.3642 0.441408 15.6245C0.441408 16.1543 0.648927 16.6523 1.02246 17.0259L3.61768 19.6211C4.21338 20.2192 5.03613 20.5586 5.88086 20.5586C6.05908 20.5586 6.22998 20.5439 6.39844 20.5146C9.68946 19.9727 12.9536 18.2222 15.5879 15.5903C18.2197 12.9609 19.9678 9.69922 20.5171 6.39844C20.6831 5.39014 20.3486 4.35254 19.6211 3.62012Z" fill="white"/>
</svg>
