<svg width="38" height="38" viewBox="0 0 38 38" fill="none" xmlns="http://www.w3.org/2000/svg">
<path d="M7.91675 11.0833H29.7509C30.1933 11.0833 30.6308 11.176 31.0352 11.3554C31.4396 11.5349 31.8019 11.7971 32.0988 12.1251C32.3956 12.4531 32.6204 12.8397 32.7588 13.26C32.8971 13.6802 32.9458 14.1248 32.9017 14.565L31.9517 24.065C31.8736 24.8464 31.5079 25.5709 30.9257 26.0978C30.3435 26.6247 29.5862 26.9166 28.8009 26.9166H13.6801C12.9477 26.9169 12.2379 26.6633 11.6715 26.1991C11.1051 25.7349 10.7171 25.0887 10.5736 24.3706L7.91675 11.0833Z" stroke="white" stroke-width="3" stroke-linejoin="round"/>
<path d="M7.91675 11.0833L6.63425 5.94858C6.54848 5.60619 6.35076 5.30228 6.07249 5.08512C5.79423 4.86796 5.45138 4.75001 5.09841 4.75H3.16675" stroke="white" stroke-width="3" stroke-linecap="round" stroke-linejoin="round"/>
<path d="M12.6667 33.25H15.8334" stroke="white" stroke-width="3" stroke-linecap="round" stroke-linejoin="round"/>
<path d="M25.3334 33.25H28.5001" stroke="white" stroke-width="3" stroke-linecap="round" stroke-linejoin="round"/>
</svg>
