<svg width="65" height="34" viewBox="0 0 65 34" fill="none" xmlns="http://www.w3.org/2000/svg">
<path d="M1.16675 17.0001C1.16675 25.7448 8.25533 32.8334 17.0001 32.8334C25.7448 32.8334 32.8334 25.7448 32.8334 17.0001C32.8334 8.25533 25.7448 1.16675 17.0001 1.16675C8.25533 1.16675 1.16675 8.25533 1.16675 17.0001Z" stroke="white" stroke-width="2" stroke-linecap="round" stroke-linejoin="round"/>
<path d="M18.5834 1.24585C18.5834 1.24585 23.3334 7.50002 23.3334 17C23.3334 26.5 18.5834 32.7542 18.5834 32.7542" stroke="white" stroke-width="2" stroke-linecap="round" stroke-linejoin="round"/>
<path d="M15.4167 32.7542C15.4167 32.7542 10.6667 26.5 10.6667 17C10.6667 7.50002 15.4167 1.24585 15.4167 1.24585" stroke="white" stroke-width="2" stroke-linecap="round" stroke-linejoin="round"/>
<path d="M2.16425 22.5417H31.8359" stroke="white" stroke-width="2" stroke-linecap="round" stroke-linejoin="round"/>
<path d="M2.16425 11.4585H31.8359" stroke="white" stroke-width="2" stroke-linecap="round" stroke-linejoin="round"/>
<path d="M42.3681 12.256V20.41C42.3681 22.894 44.1141 25.324 47.4981 25.324C50.8641 25.324 52.6281 22.912 52.6281 20.41V12.256H50.3601V20.302C50.3601 21.472 49.6941 23.164 47.4981 23.164C45.3021 23.164 44.6361 21.472 44.6361 20.302V12.256H42.3681ZM59.6603 11.932C56.8883 11.932 54.9623 13.48 54.9623 15.784C54.9623 18.088 56.4383 18.862 58.7243 19.564C60.3623 20.068 61.0103 20.572 61.0103 21.526C61.0103 22.552 60.0023 23.272 58.7783 23.272C57.7523 23.272 56.8163 22.786 56.2583 21.94L54.5483 23.596C55.5383 24.784 57.0143 25.324 58.8143 25.324C61.3163 25.324 63.3863 23.884 63.3863 21.256C63.3863 18.628 61.3523 17.98 59.3183 17.35C58.0583 16.954 57.3383 16.486 57.3383 15.622C57.3383 14.632 58.1483 13.984 59.4263 13.984C60.3083 13.984 61.1543 14.29 61.6583 14.992L63.3143 13.246C62.4143 12.4 61.1183 11.932 59.6603 11.932Z" fill="white"/>
</svg>
